<svg width="89" height="84" viewBox="0 0 89 84" fill="none" xmlns="http://www.w3.org/2000/svg">
<path d="M40.3401 36.167C42.6449 36.167 44.5132 34.2986 44.5132 31.9939C44.5132 29.6891 42.6449 27.8208 40.3401 27.8208C38.0354 27.8208 36.167 29.6891 36.167 31.9939C36.167 34.2986 38.0354 36.167 40.3401 36.167Z" fill="#6C757A"/>
<path d="M34.0206 65.3788H40.3401C42.0998 65.3788 43.2335 63.8695 43.8775 62.5967H37.558C35.7984 62.5967 34.6647 64.106 34.0206 65.3788Z" fill="#6C757A"/>
<path d="M62.3573 38.6305C62.8956 39.525 64.3353 40.3401 65.3786 40.3401H88.9915C88.9456 38.9296 88.8287 37.5386 88.6451 36.167H60.88L62.3573 38.6305Z" fill="#6C757A"/>
<path d="M33.7841 49.8215L39.582 38.8726C36.6566 38.5499 34.2794 36.4313 33.5991 33.627C31.6155 34.3768 29.6736 34.776 27.8208 34.776H6.22351C6.01346 35.5995 5.78672 36.4049 5.59754 37.2562C5.13433 39.3428 4.63633 41.5295 4.13556 43.7273C3.07559 48.3831 2.04483 52.9096 1.27698 56.7168L26.5382 54.5677C29.3106 54.3535 32.4877 52.2697 33.7841 49.8215Z" fill="#6C757A"/>
<path d="M65.3788 43.1222C63.3437 43.1222 61.0193 41.8063 59.9718 40.0619L57.2301 35.4923C56.9713 35.0611 56.9658 34.527 57.212 34.0902C57.4582 33.6534 57.9228 33.3849 58.4236 33.3849H88.1862C84.3094 14.3597 67.4473 0 47.2953 0C27.071 0 13.2316 11.0462 6.98162 31.9939H27.8208C29.5053 31.9939 31.3067 31.6002 33.1763 30.8226C33.2945 30.7739 33.4044 30.7169 33.5198 30.6654C34.1416 27.4647 36.9599 25.0387 40.3401 25.0387C44.1752 25.0387 47.2953 28.1588 47.2953 31.9939C47.2953 34.8984 45.5022 37.3869 42.9664 38.426L36.2435 51.1234C34.4894 54.4383 30.5027 57.0534 26.765 57.3414L0.731686 59.5545C0.276817 62.0737 0 64.1116 0 65.4219C0 70.5075 3.97002 83.4623 8.95133 83.4623H12.7934C13.6183 80.3491 16.8149 72.334 27.8208 72.334H46.4551L58.6782 49.1092C59.6254 47.312 61.9582 45.9043 63.9877 45.9043H88.8734C88.9388 44.9959 88.9777 44.0667 89 43.1222H65.3788ZM38.5415 13.5028C38.2702 13.7741 37.9141 13.9104 37.558 13.9104C37.2019 13.9104 36.8458 13.7741 36.5746 13.5028L33.7925 10.7207C33.2486 10.1768 33.2486 9.2977 33.7925 8.7538C34.3364 8.20991 35.2155 8.20991 35.7594 8.7538L38.5415 11.5359C39.0854 12.0798 39.0854 12.9589 38.5415 13.5028ZM47.2536 61.5423C47.1868 61.8136 45.5398 68.1609 40.3401 68.1609H31.9939C31.5654 68.1609 31.1606 67.9633 30.8977 67.6253C30.6348 67.2887 30.5402 66.8477 30.6446 66.4332C30.7113 66.1619 32.3583 59.8146 37.558 59.8146H45.9043C46.3327 59.8146 46.7375 60.0122 47.0004 60.3502C47.2647 60.6868 47.3579 61.1264 47.2536 61.5423ZM46.8877 12.1118C46.6165 12.383 46.2604 12.5193 45.9043 12.5193C45.5481 12.5193 45.192 12.383 44.9208 12.1118L42.1387 9.32969C41.5948 8.7858 41.5948 7.90666 42.1387 7.36276C42.6826 6.81887 43.5617 6.81887 44.1056 7.36276L46.8877 10.1448C47.4316 10.6887 47.4316 11.5679 46.8877 12.1118Z" fill="#6C757A"/>
<path d="M27.8207 75.1161C19.3367 75.1161 16.5393 80.6635 15.6658 83.4623H67.29C68.1816 83.4623 69.0316 83.1841 69.7493 82.6597C71.1459 81.6428 74.9574 78.6145 78.8259 73.4301C76.3011 74.408 73.213 75.1161 69.5518 75.1161H27.8207Z" fill="#6C757A"/>
<path d="M61.1403 50.4043L49.5989 72.334H69.5519C75.2719 72.334 79.4172 70.3865 81.992 68.6338C85.0078 63.4564 87.6326 56.8392 88.6133 48.6863H63.9878C62.9723 48.6863 61.6147 49.5057 61.1403 50.4043ZM69.5519 52.8595C73.387 52.8595 76.5071 55.9796 76.5071 59.8146C76.5071 63.6497 73.387 66.7698 69.5519 66.7698C65.7168 66.7698 62.5967 63.6497 62.5967 59.8146C62.5967 55.9796 65.7168 52.8595 69.5519 52.8595Z" fill="#6C757A"/>
<path d="M69.552 63.9877C71.8528 63.9877 73.7251 62.1154 73.7251 59.8146C73.7251 57.5138 71.8528 55.6415 69.552 55.6415C67.2512 55.6415 65.3789 57.5138 65.3789 59.8146C65.3789 62.1154 67.2512 63.9877 69.552 63.9877ZM69.552 58.4236C70.3213 58.4236 70.9431 59.0454 70.9431 59.8146C70.9431 60.5839 70.3213 61.2057 69.552 61.2057C68.7828 61.2057 68.161 60.5839 68.161 59.8146C68.161 59.0454 68.7828 58.4236 69.552 58.4236Z" fill="#6C757A"/>
</svg>
