<svg width="92" height="92" viewBox="0 0 92 92" fill="none" xmlns="http://www.w3.org/2000/svg">
<path d="M14.11 43.84L12.94 40C12.8631 39.7454 12.8905 39.4707 13.0161 39.2362C13.1418 39.0018 13.3554 38.8269 13.61 38.75C13.8646 38.6731 14.1393 38.7005 14.3738 38.8261C14.6082 38.9518 14.7831 39.1654 14.86 39.42L16 43.18C19.8127 41.7734 23.4184 39.8595 26.72 37.49L24.57 34.57C24.4826 34.4651 24.4176 34.3434 24.379 34.2124C24.3404 34.0814 24.329 33.9439 24.3456 33.8083C24.3622 33.6728 24.4064 33.542 24.4754 33.4242C24.5445 33.3064 24.6369 33.204 24.7471 33.1232C24.8572 33.0425 24.9827 32.9852 25.1159 32.9548C25.249 32.9245 25.387 32.9217 25.5212 32.9467C25.6555 32.9717 25.7832 33.0239 25.8965 33.1002C26.0098 33.1764 26.1063 33.275 26.18 33.39L28.32 36.29C29.7989 35.1309 31.208 33.8854 32.54 32.56C34.0009 31.0945 35.3639 29.5344 36.62 27.89L33.77 25.8C33.6642 25.7219 33.5748 25.6238 33.5069 25.5112C33.4391 25.3985 33.3941 25.2736 33.3746 25.1436C33.3551 25.0135 33.3615 24.8809 33.3933 24.7533C33.4251 24.6257 33.4817 24.5057 33.56 24.4C33.6381 24.2942 33.7362 24.2048 33.8488 24.1369C33.9615 24.0691 34.0864 24.0241 34.2164 24.0046C34.3465 23.9851 34.4791 23.9915 34.6067 24.0233C34.7343 24.0551 34.8543 24.1117 34.96 24.19L37.8 26.27C40.1367 22.9421 42.0105 19.3123 43.37 15.48L40.29 14.48C40.1642 14.4393 40.0476 14.374 39.9472 14.2879C39.8468 14.2019 39.7644 14.0967 39.7049 13.9786C39.6454 13.8605 39.6099 13.7317 39.6004 13.5998C39.591 13.4679 39.6079 13.3354 39.65 13.21C39.7344 12.96 39.9142 12.7535 40.1502 12.6355C40.3863 12.5175 40.6593 12.4975 40.91 12.58L44 13.58C45.3421 9.17884 46.0163 4.60122 46 0C33.8 0 22.0998 4.84641 13.4731 13.4731C4.84641 22.0998 0 33.8 0 46C4.78683 46.0153 9.54697 45.2866 14.11 43.84Z" fill="#6C757A"/>
<path d="M46.22 77.29L43.65 76.51C43.4162 76.4187 43.2253 76.2428 43.1152 76.0173C43.005 75.7917 42.9837 75.533 43.0555 75.2925C43.1273 75.052 43.2869 74.8473 43.5026 74.719C43.7183 74.5907 43.9744 74.5482 44.22 74.6L46.87 75.39C48.346 71.3614 50.3646 67.553 52.87 64.07L50.69 62.47C50.5751 62.3963 50.4764 62.2998 50.4002 62.1865C50.3239 62.0732 50.2717 61.9455 50.2467 61.8112C50.2217 61.677 50.2245 61.539 50.2548 61.4059C50.2852 61.2727 50.3425 61.1472 50.4233 61.037C50.504 60.9269 50.6064 60.8345 50.7242 60.7654C50.8421 60.6964 50.9728 60.6522 51.1083 60.6356C51.2439 60.619 51.3814 60.6304 51.5124 60.6689C51.6434 60.7075 51.7651 60.7726 51.87 60.86L54.07 62.47C55.2894 60.9027 56.6017 59.41 58 58C59.5397 56.4696 61.1765 55.0399 62.9 53.72L61.25 51.5C61.1718 51.3943 61.1151 51.2743 61.0833 51.1467C61.0515 51.0191 61.0451 50.8865 61.0647 50.7564C61.0842 50.6264 61.1291 50.5015 61.197 50.3888C61.2648 50.2762 61.3542 50.178 61.46 50.1C61.5657 50.0217 61.6858 49.9651 61.8133 49.9333C61.9409 49.9014 62.0735 49.8951 62.2036 49.9146C62.3336 49.9341 62.4585 49.9791 62.5712 50.0469C62.6838 50.1148 62.782 50.2042 62.86 50.31L64.52 52.57C68.0238 50.1112 71.8455 48.1399 75.88 46.71L74.88 43.79C74.798 43.538 74.8193 43.2638 74.9393 43.0276C75.0593 42.7913 75.2682 42.6124 75.52 42.53C75.6454 42.4878 75.7779 42.471 75.9098 42.4804C76.0418 42.4898 76.1705 42.5253 76.2886 42.5849C76.4068 42.6444 76.5119 42.7268 76.598 42.8272C76.684 42.9276 76.7493 43.0441 76.79 43.17L77.79 46.08C82.3667 44.6869 87.126 43.9858 91.91 44C91.4203 32.5077 86.638 21.6171 78.508 13.4798C70.3781 5.34241 59.4918 0.550231 48 0.0499878C48.0086 4.84492 47.3008 9.61423 45.9 14.2L48.81 15.2C48.9359 15.2407 49.0524 15.306 49.1528 15.3921C49.2533 15.4781 49.3356 15.5833 49.3951 15.7014C49.4547 15.8195 49.4902 15.9483 49.4996 16.0802C49.509 16.2121 49.4922 16.3446 49.45 16.47C49.3804 16.677 49.245 16.8555 49.0645 16.9783C48.8839 17.1011 48.6681 17.1614 48.45 17.15C48.3445 17.153 48.2393 17.136 48.14 17.1L45.23 16.15C43.7926 20.1832 41.8182 24.0043 39.36 27.51L41.62 29.17C41.7922 29.2946 41.9202 29.4708 41.9854 29.673C42.0507 29.8753 42.0498 30.093 41.9829 30.2947C41.9161 30.4964 41.7867 30.6716 41.6135 30.7948C41.4404 30.918 41.2325 30.9829 41.02 30.98C40.8071 30.9778 40.6004 30.9078 40.43 30.78L38.18 29.12C36.8914 30.8335 35.4952 32.4634 34 34C32.5816 35.3912 31.0787 36.6937 29.5 37.9L31.12 40.1C31.275 40.3127 31.3398 40.5779 31.3005 40.8381C31.2612 41.0983 31.1209 41.3325 30.91 41.49C30.7397 41.6178 30.533 41.6878 30.32 41.69C30.1622 41.6904 30.0066 41.6535 29.8658 41.5822C29.725 41.5109 29.6031 41.4074 29.51 41.28L27.91 39.1C24.4256 41.6031 20.6175 43.6215 16.59 45.1L17.38 47.74C17.42 47.8667 17.4344 48.0001 17.4222 48.1324C17.4101 48.2647 17.3717 48.3932 17.3094 48.5105C17.247 48.6278 17.1619 48.7315 17.059 48.8156C16.956 48.8996 16.8374 48.9623 16.71 49C16.6139 49.0141 16.5162 49.0141 16.42 49C16.1982 49.0095 15.9795 48.9448 15.7984 48.8163C15.6173 48.6877 15.4842 48.5026 15.42 48.29L14.65 45.72C9.94363 47.2276 5.032 47.9967 0.0900269 48C0.571063 59.4933 5.35111 70.3868 13.4834 78.5227C21.6156 86.6587 32.5069 91.4437 44 91.93C43.9697 86.9639 44.7188 82.0238 46.22 77.29Z" fill="#6C757A"/>
<path d="M78.4 48L79.4 51.09C79.4821 51.342 79.4607 51.6162 79.3407 51.8524C79.2207 52.0887 79.0119 52.2676 78.76 52.35C78.6598 52.382 78.5553 52.3988 78.45 52.4C78.2391 52.3999 78.0337 52.333 77.8631 52.2091C77.6925 52.0852 77.5654 51.9105 77.5 51.71L76.5 48.62C72.666 49.9871 69.0334 51.864 65.7 54.2L67.79 57C67.8775 57.1049 67.9425 57.2266 67.9811 57.3576C68.0197 57.4886 68.031 57.6261 68.0144 57.7617C67.9978 57.8972 67.9537 58.028 67.8846 58.1458C67.8156 58.2636 67.7231 58.366 67.613 58.4468C67.5028 58.5275 67.3773 58.5848 67.2442 58.6152C67.111 58.6455 66.9731 58.6483 66.8388 58.6233C66.7045 58.5983 66.5768 58.5461 66.4635 58.4699C66.3502 58.3936 66.2537 58.295 66.18 58.18L64.09 55.34C62.4456 56.5961 60.8856 57.9591 59.42 59.42C58.0947 60.752 56.8492 62.1611 55.69 63.64L58.59 65.78C58.7658 65.9026 58.8976 66.0785 58.9658 66.2817C59.0341 66.4849 59.0353 66.7046 58.9692 66.9085C58.9031 67.1124 58.7732 67.2897 58.5987 67.4142C58.4242 67.5387 58.2143 67.6038 58 67.6C57.7882 67.6008 57.5816 67.5342 57.41 67.41L54.49 65.26C52.1129 68.5657 50.1954 72.1786 48.79 76L52.6 77.15C52.7313 77.169 52.8576 77.2138 52.9717 77.2816C53.0857 77.3495 53.1853 77.4391 53.2647 77.5454C53.3441 77.6518 53.4017 77.7727 53.4344 77.9013C53.4671 78.0299 53.4741 78.1637 53.455 78.295C53.436 78.4263 53.3913 78.5526 53.3234 78.6667C53.2556 78.7807 53.1659 78.8803 53.0596 78.9596C52.9533 79.039 52.8324 79.0967 52.7037 79.1294C52.5751 79.162 52.4414 79.169 52.31 79.15C52.1988 79.1183 52.0939 79.0676 52 79L48.11 77.83C46.671 82.4142 45.959 87.1955 46 92C52.0431 92.0079 58.0283 90.8235 63.6128 88.5145C69.1973 86.2056 74.2715 82.8176 78.5446 78.5445C82.8176 74.2715 86.2056 69.1973 88.5146 63.6128C90.8235 58.0282 92.0079 52.043 92 46C87.3919 45.9793 82.8071 46.6535 78.4 48Z" fill="#6C757A"/>
</svg>
