<svg width="92" height="92" viewBox="0 0 92 92" fill="none" xmlns="http://www.w3.org/2000/svg">
<path d="M0 46.4502C0.081338 57.1206 3.88957 67.4271 10.766 75.5868C23.3621 71.3293 36.7608 57.3825 36.8979 57.2357C49.2298 42.8387 64.7621 43.6902 65.4178 43.7391C66.0736 43.7881 66.4553 43.7391 66.9544 43.7391C67.2267 39.9512 67.1841 36.1472 66.8272 32.3664C44.0425 30.7906 15.1996 36.0562 0 46.4502Z" fill="#6C757A"/>
<path d="M45.7847 30.9472C52.7163 30.2725 59.6911 30.158 66.6412 30.6047C66.2042 27.0283 65.4141 23.5041 64.2825 20.0834C63.9791 20.0834 63.6855 20.0834 63.3625 20.0834C58.5374 20.0834 52.4596 18.8796 44.8647 15.503C44.6787 15.4149 29.4596 7.94725 20.7 7.56555C14.558 11.6039 9.47332 17.0554 5.87177 23.4632C2.27023 29.8711 0.256742 37.0488 0 44.3949C10.4528 37.6711 27.4042 32.6796 45.7847 30.9472Z" fill="#6C757A"/>
<path d="M45.589 14.0055C53.0958 17.343 59.0366 18.4391 63.666 18.3609C61.0791 11.1142 56.403 4.79647 50.2281 0.20554C48.8285 0.0783061 47.4192 8.23363e-06 46 8.23363e-06C37.9603 -0.00481368 30.0613 2.10836 23.0979 6.12681C32.2392 7.44809 45.0213 13.7021 45.589 14.0055Z" fill="#6C757A"/>
<path d="M66.005 19.9757C67.1293 23.4802 67.9094 27.0859 68.3344 30.7417C77.4463 31.5247 85.2858 33.4136 90.9527 36.3106C89.0997 27.8043 84.871 19.9984 78.7578 13.8C77.319 15.503 73.4922 19.2417 66.005 19.9757Z" fill="#6C757A"/>
<path d="M77.5247 12.557C70.884 6.27378 62.5166 2.11905 53.4971 0.626404C58.9471 5.35547 63.0638 11.4293 65.4375 18.2434C72.7583 17.617 76.3405 13.9762 77.5247 12.557Z" fill="#6C757A"/>
<path d="M68.5106 32.5132C68.8393 36.2991 68.8688 40.1051 68.5987 43.8957C82.0953 45.5596 86.2744 59.8881 87.4293 65.9072C90.4347 59.7011 91.9973 52.8955 92 46C91.9952 43.4751 91.7857 40.9548 91.3736 38.4638C85.7459 35.234 77.691 33.2766 68.5106 32.5132Z" fill="#6C757A"/>
<path d="M66.8272 45.4617C66.3574 45.4617 65.8485 45.4617 65.3787 45.4617C65.1634 45.4617 49.954 44.6396 38.1995 58.4102C37.6123 59.0268 24.7812 72.3766 12.0089 77.0059C16.3173 81.7355 21.5665 85.5125 27.4201 88.0946C33.2736 90.6767 39.6022 92.0069 46 92C47.0961 92 48.1727 92 49.2493 91.8727C59.5944 76.8591 65.4668 60.4949 66.8272 45.4617Z" fill="#6C757A"/>
<path d="M68.5106 45.6085C67.1698 60.5536 61.454 76.7319 51.4319 91.6672C58.6382 90.7984 65.5372 88.2391 71.5666 84.198C77.596 80.1568 82.5853 74.7481 86.1276 68.4127C85.8536 65.78 83.2991 47.5464 68.5106 45.6085Z" fill="#6C757A"/>
</svg>
