<svg width="74" height="92" viewBox="0 0 74 92" fill="none" xmlns="http://www.w3.org/2000/svg">
<path d="M39.3199 74.5495C32.7332 74.5495 24.7762 73.5708 17.7882 69.9398C16.4123 69.2322 15.1022 68.4036 13.8733 67.4636V83.3971C13.844 87.8307 27.409 92 37.9595 92C50.3501 92 62.0751 87.8209 62.0751 83.3971V67.7377C56.9764 71.6769 50.8112 73.9923 44.3799 74.3831C42.8237 74.4712 41.111 74.5495 39.3199 74.5495Z" fill="#6C757A"/>
<path d="M31.0401 43.26C31.2652 43.26 50.5361 42.1932 53.4918 35.4303L48.7842 31.7503C46.7293 30.1159 45.3721 27.7619 44.9871 25.1647C44.6021 22.5674 45.2181 19.9209 46.7105 17.7607C48.2029 15.6005 50.4602 14.0878 53.0256 13.5289C55.591 12.9699 58.273 13.4064 60.5288 14.75L62.8385 16.1594C62.5351 6.85178 57.6611 2.86841 53.5407 1.17523C51.5426 0.378908 49.4083 -0.0200262 47.2574 0.000773368C46.0827 0.00484481 44.9104 0.109625 43.7536 0.313962L19.5793 4.54201C0.98374 6.6854 0.269279 16.8738 0.249704 17.3045C-0.0832347 21.1371 -0.0832347 24.9913 0.249704 28.8239C1.28714 30.3409 11.7496 44.8651 31.0401 43.26Z" fill="#6C757A"/>
<path d="M66.7436 20.0742L63.23 17.9211L59.9122 15.8853C57.9431 14.7026 55.5977 14.3135 53.3522 14.797C51.1067 15.2805 49.1293 16.6004 47.8215 18.4887C46.5136 20.3769 45.9733 22.6921 46.3103 24.9643C46.6472 27.2364 47.8361 29.2952 49.6357 30.7227L58.5126 37.652C58.6493 37.7616 58.7373 37.9207 58.7575 38.0947C58.7776 38.2688 58.7283 38.4438 58.6203 38.5817C58.5675 38.6587 58.4989 38.7235 58.4191 38.7719C58.3393 38.8202 58.2501 38.851 58.1575 38.8621C58.0649 38.8732 57.9709 38.8644 57.8819 38.8363C57.793 38.8082 57.711 38.7615 57.6415 38.6992L54.5488 36.2818C50.8982 43.5047 31.9601 44.5323 31.1281 44.5813C30.0711 44.6693 29.0435 44.7085 28.0354 44.7085C13.1394 44.7085 3.91987 35.4596 0.50415 31.3197C1.39088 38.7483 3.0305 46.0676 5.39773 53.1646C6.9456 57.9806 9.79407 62.2754 13.6287 65.5747C15.0733 66.8031 16.6526 67.8636 18.3363 68.736C27.0078 73.2087 37.2255 73.5219 44.2625 73.0031C51.8436 72.5924 58.9848 69.314 64.2381 63.8326C67.8054 60.1353 70.2198 55.4798 71.187 50.434L73.5457 34.6473C73.9681 31.8187 73.5483 28.9283 72.3387 26.3367C71.129 23.7451 69.1831 21.567 66.7436 20.0742Z" fill="#6C757A"/>
</svg>
