<svg width="92" height="92" viewBox="0 0 92 92" fill="none" xmlns="http://www.w3.org/2000/svg">
<path d="M9.85712 49.2857C11.6718 49.2857 13.1428 47.8146 13.1428 46C13.1428 44.1853 11.6718 42.7143 9.85712 42.7143C8.04248 42.7143 6.57141 44.1853 6.57141 46C6.57141 47.8146 8.04248 49.2857 9.85712 49.2857Z" fill="#6C757A"/>
<path d="M27.9285 54.2143C29.7432 54.2143 31.2142 52.7432 31.2142 50.9286C31.2142 49.1139 29.7432 47.6429 27.9285 47.6429C26.1139 47.6429 24.6428 49.1139 24.6428 50.9286C24.6428 52.7432 26.1139 54.2143 27.9285 54.2143Z" fill="#6C757A"/>
<path d="M17.544 62.4285C17.3295 62.054 17.0427 61.7257 16.7003 61.4629C16.358 61.2001 15.9668 61.0078 15.5495 60.8974C14.7084 60.6823 13.8164 60.805 13.0645 61.2391C12.3126 61.6733 11.7605 62.3844 11.5262 63.2204C11.4128 63.637 11.3833 64.072 11.4394 64.5001C11.4955 64.9282 11.6361 65.3409 11.8531 65.7142C12.2943 66.463 13.012 67.0085 13.8515 67.2331C14.691 67.4577 15.5852 67.3436 16.3414 66.9152C17.0956 66.4795 17.6459 65.7621 17.8714 64.9208C18.0969 64.0795 17.9791 63.183 17.544 62.4285Z" fill="#6C757A"/>
<path d="M39.4285 67.3571C41.2432 67.3571 42.7142 65.8861 42.7142 64.0714C42.7142 62.2568 41.2432 60.7857 39.4285 60.7857C37.6139 60.7857 36.1428 62.2568 36.1428 64.0714C36.1428 65.8861 37.6139 67.3571 39.4285 67.3571Z" fill="#6C757A"/>
<path d="M45.9999 85.4285C47.8146 85.4285 49.2857 83.9575 49.2857 82.1428C49.2857 80.3282 47.8146 78.8571 45.9999 78.8571C44.1853 78.8571 42.7142 80.3282 42.7142 82.1428C42.7142 83.9575 44.1853 85.4285 45.9999 85.4285Z" fill="#6C757A"/>
<path d="M62.4285 74.4543C61.8654 74.7789 61.4113 75.2631 61.1234 75.8459C60.8356 76.4286 60.7271 77.0836 60.8116 77.728C60.896 78.3724 61.1697 78.9773 61.598 79.4661C62.0263 79.955 62.59 80.3058 63.2177 80.4743C63.8454 80.6428 64.509 80.6213 65.1245 80.4126C65.74 80.2039 66.2798 79.8174 66.6756 79.3019C67.0714 78.7864 67.3054 78.1651 67.348 77.5165C67.3907 76.868 67.24 76.2214 66.9152 75.6585C66.701 75.2835 66.4146 74.9546 66.0727 74.6908C65.7307 74.427 65.3399 74.2335 64.9227 74.1216C64.5056 74.0096 64.0705 73.9814 63.6424 74.0385C63.2143 74.0956 62.8017 74.2369 62.4285 74.4543Z" fill="#6C757A"/>
<path d="M46 0C36.9021 0 28.0084 2.69785 20.4438 7.7524C12.8791 12.8069 6.98319 19.9912 3.50156 28.3966C0.019931 36.802 -0.891022 46.051 0.883898 54.9741C2.65882 63.8973 7.03989 72.0937 13.4731 78.5269C19.9063 84.9601 28.1027 89.3412 37.0259 91.1161C45.949 92.891 55.198 91.9801 63.6034 88.4984C72.0088 85.0168 79.1931 79.1209 84.2476 71.5562C89.3022 63.9916 92 55.0979 92 46C91.9861 33.8043 87.1352 22.1121 78.5115 13.4885C69.8879 4.8648 58.1957 0.0139141 46 0ZM3.28573 46C3.28573 44.7003 3.67114 43.4298 4.39322 42.3491C5.1153 41.2684 6.14161 40.4262 7.34239 39.9288C8.54316 39.4314 9.86445 39.3013 11.1392 39.5548C12.4139 39.8084 13.5848 40.4343 14.5039 41.3533C15.4229 42.2723 16.0488 43.4432 16.3023 44.718C16.5559 45.9927 16.4257 47.314 15.9284 48.5148C15.431 49.7155 14.5887 50.7419 13.5081 51.4639C12.4274 52.186 11.1569 52.5714 9.85716 52.5714C8.11431 52.5714 6.44284 51.8791 5.21046 50.6467C3.97808 49.4143 3.28573 47.7428 3.28573 46ZM21.0467 65.7718C20.6534 67.2404 19.7631 68.5272 18.5274 69.413C17.2918 70.2988 15.7872 70.7287 14.2701 70.6295C12.753 70.5303 11.3172 69.9081 10.2074 68.869C9.09759 67.8298 8.38243 66.438 8.18377 64.9307C7.98511 63.4234 8.31525 61.8938 9.11792 60.6026C9.9206 59.3114 11.1462 58.3385 12.5858 57.8496C14.0254 57.3607 15.5899 57.3862 17.0129 57.9215C18.4359 58.4569 19.6292 59.4691 20.3895 60.7857C20.8236 61.5319 21.1052 62.3569 21.218 63.2128C21.3308 64.0688 21.2726 64.9385 21.0467 65.7718ZM27.9286 44.3571C29.2283 44.3571 30.4988 44.7425 31.5795 45.4646C32.6601 46.1867 33.5024 47.213 33.9998 48.4138C34.4972 49.6146 34.6273 50.9359 34.3737 52.2106C34.1202 53.4853 33.4943 54.6562 32.5753 55.5753C31.6563 56.4943 30.4853 57.1202 29.2106 57.3737C27.9359 57.6273 26.6146 57.4971 25.4138 56.9998C24.213 56.5024 23.1867 55.6601 22.4646 54.5795C21.7426 53.4988 21.3572 52.2283 21.3572 50.9286C21.3572 49.1857 22.0495 47.5142 23.2819 46.2819C24.5143 45.0495 26.1857 44.3571 27.9286 44.3571ZM33.6194 80.5871C32.9694 81.7124 32.0003 82.6198 30.8346 83.1944C29.6689 83.769 28.359 83.9851 27.0705 83.8153C25.782 83.6455 24.5728 83.0974 23.5958 82.2404C22.6188 81.3834 21.9178 80.256 21.5815 79.0006C21.2452 77.7452 21.2887 76.4184 21.7065 75.1877C22.1242 73.9571 22.8975 72.8779 23.9286 72.0868C24.9596 71.2956 26.2021 70.8279 27.499 70.7428C28.7958 70.6578 30.0887 70.9591 31.2143 71.6088C32.722 72.4822 33.8219 73.9177 34.2728 75.6008C34.7236 77.2838 34.4887 79.077 33.6194 80.5871ZM32.8572 64.0714C32.8572 62.7717 33.2426 61.5012 33.9646 60.4205C34.6867 59.3399 35.713 58.4976 36.9138 58.0002C38.1146 57.5028 39.4359 57.3727 40.7106 57.6263C41.9853 57.8798 43.1563 58.5057 44.0753 59.4247C44.9943 60.3437 45.6202 61.5147 45.8737 62.7894C46.1273 64.0641 45.9972 65.3854 45.4998 66.5862C45.0024 67.787 44.1601 68.8133 43.0795 69.5354C41.9988 70.2574 40.7283 70.6428 39.4286 70.6428C37.6857 70.6428 36.0143 69.9505 34.7819 68.7181C33.5495 67.4857 32.8572 65.8143 32.8572 64.0714ZM46 88.7143C44.7003 88.7143 43.4298 88.3289 42.3491 87.6068C41.2685 86.8847 40.4262 85.8584 39.9288 84.6576C39.4314 83.4568 39.3013 82.1356 39.5549 80.8608C39.8084 79.5861 40.4343 78.4152 41.3533 77.4961C42.2723 76.5771 43.4433 75.9512 44.718 75.6977C45.9927 75.4441 47.314 75.5743 48.5148 76.0716C49.7156 76.569 50.7419 77.4113 51.464 78.4919C52.186 79.5726 52.5714 80.8431 52.5714 82.1428C52.5714 83.8857 51.8791 85.5572 50.6467 86.7895C49.4143 88.0219 47.7429 88.7143 46 88.7143ZM50.9286 62.4286C50.9286 61.1289 51.314 59.8583 52.0361 58.7777C52.7581 57.697 53.7845 56.8547 54.9852 56.3574C56.186 55.86 57.5073 55.7298 58.782 55.9834C60.0568 56.237 61.2277 56.8628 62.1467 57.7819C63.0657 58.7009 63.6916 59.8718 63.9452 61.1465C64.1987 62.4213 64.0686 63.7426 63.5712 64.9433C63.0738 66.1441 62.2316 67.1704 61.1509 67.8925C60.0702 68.6146 58.7997 69 57.5 69C55.7572 69 54.0857 68.3076 52.8533 67.0753C51.6209 65.8429 50.9286 64.1714 50.9286 62.4286ZM70.4178 79.0017C70.0245 80.4703 69.1342 81.7571 67.8986 82.6429C66.6629 83.5287 65.1583 83.9586 63.6412 83.8594C62.1241 83.7602 60.6883 83.138 59.5785 82.0989C58.4687 81.0597 57.7536 79.6679 57.5549 78.1606C57.3562 76.6533 57.6864 75.1238 58.4891 73.8326C59.2917 72.5414 60.5173 71.5684 61.9569 71.0796C63.3965 70.5907 64.9611 70.6161 66.384 71.1515C67.807 71.6868 69.0003 72.6991 69.7607 74.0156C70.1944 74.762 70.4758 75.587 70.5886 76.4428C70.7014 77.2987 70.6433 78.1684 70.4178 79.0017Z" fill="#6C757A"/>
<path d="M57.4999 65.7143C59.3146 65.7143 60.7857 64.2432 60.7857 62.4286C60.7857 60.6139 59.3146 59.1429 57.4999 59.1429C55.6853 59.1429 54.2142 60.6139 54.2142 62.4286C54.2142 64.2432 55.6853 65.7143 57.4999 65.7143Z" fill="#6C757A"/>
<path d="M29.5714 74.4543C29.0086 74.1295 28.3622 73.9789 27.7138 74.0215C27.0654 74.0641 26.4443 74.2979 25.9288 74.6935C25.4133 75.0891 25.0267 75.6286 24.8178 76.2439C24.609 76.8592 24.5872 77.5226 24.7553 78.1502C24.9234 78.7778 25.2738 79.3415 25.7623 79.7701C26.2507 80.1986 26.8552 80.4726 27.4994 80.5576C28.1436 80.6426 28.7985 80.5347 29.3814 80.2475C29.9642 79.9603 30.4488 79.5068 30.774 78.9442C30.9926 78.5711 31.135 78.1584 31.1928 77.7298C31.2507 77.3013 31.2228 76.8656 31.111 76.4479C30.9991 76.0302 30.8054 75.6389 30.5411 75.2967C30.2768 74.9545 29.9472 74.6681 29.5714 74.4543Z" fill="#6C757A"/>
</svg>
