<svg width="92" height="93" viewBox="0 0 92 93" fill="none" xmlns="http://www.w3.org/2000/svg">
<path d="M91.9997 46.1665C92.0336 35.9368 88.7443 26.4983 83.1265 18.8345L77.6329 35.722L91.9997 46.1665Z" fill="#6C757A"/>
<path d="M60.0673 89.8207C69.4718 86.8027 77.599 80.8231 83.3186 72.9219C77.3956 72.9219 71.4725 72.9106 65.5495 72.9106L60.0673 89.8207Z" fill="#6C757A"/>
<path d="M8.69269 72.922C14.401 80.8231 22.5282 86.8027 31.9441 89.8208L26.4505 72.922C20.5275 72.922 14.6044 72.922 8.69269 72.922Z" fill="#6C757A"/>
<path d="M8.87354 18.8345C3.25568 26.4983 -0.033651 35.9368 0.000259652 46.1665L14.3671 35.722L8.87354 18.8345Z" fill="#6C757A"/>
<path d="M46.0057 12.7419L60.3838 2.29744C51.081 -0.765815 40.9304 -0.765815 31.6276 2.29744L46.0057 12.7419Z" fill="#6C757A"/>
<path d="M46.0056 30.7145L29.7511 42.5267L35.9567 61.6297C42.6484 61.6297 49.3514 61.6297 56.0544 61.6297L62.2601 42.5267L46.0056 30.7145Z" fill="#6C757A"/>
<path d="M46.7856 29.5164L63.2097 41.4529L76.2992 35.2473L82.0753 17.4555C76.8757 10.8994 69.9579 5.81285 62.0228 2.87393L46.7856 13.9401V29.5164Z" fill="#6C757A"/>
<path d="M28.7903 41.4529L45.2143 29.5164V13.9401L29.9885 2.87393C22.0534 5.81285 15.1243 10.8994 9.92468 17.4555L15.7121 35.2473L28.7903 41.4529Z" fill="#6C757A"/>
<path d="M34.6342 62.1949L28.406 43.0015L15.3165 36.7958L0.0341187 47.9072C0.395832 56.5996 3.1652 64.6817 7.69792 71.4864H26.4392L34.6342 62.1949Z" fill="#6C757A"/>
<path d="M56.0432 63.0652C49.3515 63.0652 42.6598 63.0652 35.9681 63.0652L27.773 72.3568L33.6056 90.3181C41.6764 92.5788 50.3236 92.5788 58.3943 90.3181L64.2382 72.3568L56.0432 63.0652Z" fill="#6C757A"/>
<path d="M63.6053 43.0015L57.3657 62.1949L65.5608 71.4864C71.8116 71.4864 78.0625 71.4864 84.3021 71.4864C88.8461 64.6817 91.6154 56.5996 91.9659 47.9072L76.6835 36.7958L63.6053 43.0015Z" fill="#6C757A"/>
</svg>
