<svg width="92" height="92" viewBox="0 0 92 92" fill="none" xmlns="http://www.w3.org/2000/svg">
<path fill-rule="evenodd" clip-rule="evenodd" d="M77.7564 12.7321C73.2813 19.5237 72.2101 28.0633 74.888 35.8603C76.0577 39.0211 76.6689 42.4416 76.6689 46C76.6689 62.9247 62.9247 76.6689 46 76.6689C29.0753 76.6689 15.3311 62.9247 15.3311 46C15.3311 42.4449 15.939 39.031 17.0529 35.8537C19.7274 28.0764 18.6661 19.5566 14.2009 12.7749C5.451 21.1501 0 32.9426 0 46C0 71.3887 20.6113 92 46 92C71.3887 92 92 71.3887 92 46C92 32.9229 86.5326 21.1107 77.7564 12.7321ZM45.7207 0L49.1346 0.105143L49.3777 0.121571C59.1429 0.834571 68.057 4.60986 75.0884 10.5899C69.8839 18.308 68.6057 28.0764 71.6713 36.984C71.6746 36.9971 71.6811 37.0103 71.6844 37.0201C72.7227 39.8196 73.2583 42.849 73.2583 46C73.2583 61.0453 61.0453 73.2583 46 73.2583C30.9547 73.2583 18.7417 61.0453 18.7417 46C18.7417 42.8359 19.2806 39.7999 20.2729 36.9741C20.2729 36.9709 20.2729 36.9676 20.2761 36.9643C23.3319 28.0764 22.0603 18.331 16.8656 10.626C23.9003 4.62629 32.8309 0.837857 42.6157 0.121571L45.7207 0Z" fill="#6C757A"/>
</svg>
